<?xml version="1.0" standalone="no"?>
<!DOCTYPE svg PUBLIC "-//W3C//DTD SVG 20010904//EN"
 "http://www.w3.org/TR/2001/REC-SVG-20010904/DTD/svg10.dtd">
<svg version="1.0" xmlns="http://www.w3.org/2000/svg"
 width="480.000000pt" height="480.000000pt" viewBox="0 0 480.000000 480.000000"
 preserveAspectRatio="xMidYMid meet">
<metadata>
Created by potrace 1.11, written by Peter Selinger 2001-2013
</metadata>
<g transform="translate(0.000000,480.000000) scale(0.100000,-0.100000)"
fill="#000000" stroke="none">
<path d="M0 2400 l0 -2400 1898 1 c1052 1 1857 5 1807 10 -226 20 -440 122
-606 288 -212 213 -315 496 -288 795 10 102 43 230 82 314 l25 54 -67 141
c-37 78 -152 321 -256 540 -103 218 -191 397 -195 397 -4 0 -202 -413 -441
-917 l-435 -918 -191 -3 c-176 -2 -192 -1 -197 15 -5 17 -626 3367 -626 3378
0 3 89 5 198 5 l198 0 248 -1342 c137 -739 252 -1349 255 -1356 4 -7 174 340
387 790 l380 803 224 0 224 0 271 -571 c148 -314 277 -585 285 -602 l15 -32
45 31 c47 32 204 112 236 121 17 4 42 126 219 1081 l199 1077 198 0 c109 0
198 -3 198 -6 0 -7 -378 -2050 -385 -2080 -4 -20 1 -23 60 -33 438 -77 782
-444 824 -881 5 -48 9 743 10 1808 l1 1892 -2400 0 -2400 0 0 -2400z"/>
<path d="M4787 898 c-15 -212 -121 -434 -286 -599 -166 -166 -380 -268 -606
-288 -60 -6 76 -9 408 -10 l497 -1 0 490 c0 270 -2 490 -4 490 -1 0 -6 -37 -9
-82z"/>
</g>
</svg>
